<svg version="1.1" xmlns="http://www.w3.org/2000/svg" xmlns:xlink="http://www.w3.org/1999/xlink" width="512.000000pt" height="512.000000pt" viewBox="0,0,256,256"><g fill="#ffffff" fill-rule="nonzero" stroke="none" stroke-width="1" stroke-linecap="butt" stroke-linejoin="miter" stroke-miterlimit="10" stroke-dasharray="" stroke-dashoffset="0" font-family="none" font-weight="none" font-size="none" text-anchor="none" style="mix-blend-mode: normal"><g transform="translate(0,0.03388) scale(0.5,0.5)"><g transform="translate(0,512) scale(0.1,-0.1)"><path d="M1641,4464c-83,-22 -165,-71 -224,-133c-99,-104 -137,-210 -137,-383v-108h-108c-65,0 -131,-6 -167,-15c-172,-45 -305,-179 -350,-352c-22,-86 -22,-2380 0,-2466c45,-173 178,-307 350,-352c52,-13 211,-15 1235,-15c1293,0 1231,-3 1351,61c32,17 83,57 112,88c99,104 137,210 137,383v108h108c65,0 131,6 167,15c172,45 305,179 350,352c22,86 22,2380 0,2466c-45,173 -178,307 -350,352c-86,22 -2391,22 -2474,-1zM4086,4134c15,-11 37,-33 48,-48c21,-27 21,-31 21,-1206c0,-1175 0,-1179 -21,-1206c-44,-60 -67,-69 -185,-72l-109,-4v909c0,999 2,965 -61,1084c-38,70 -126,157 -197,193c-113,57 -87,56 -1074,56h-908v94c0,102 9,137 43,175c49,53 -5,51 1249,48c1161,-2 1167,-2 1194,-23zM3446,3494c15,-11 37,-33 48,-48c21,-27 21,-31 21,-1206c0,-1175 0,-1179 -21,-1206c-11,-15 -33,-37 -48,-48c-27,-21 -31,-21 -1206,-21c-1175,0 -1179,0 -1206,21c-15,11 -37,33 -48,48c-21,27 -21,34 -24,1179c-1,634 0,1166 3,1184c7,40 49,91 90,109c24,11 242,13 1197,11c1161,-2 1167,-2 1194,-23z"></path></g></g></g></svg>